<?xml version="1.0" standalone="no"?>
 <!DOCTYPE svg PUBLIC "-//W3C//DTD SVG 1.1//EN" 
 "http://www.w3.org/Graphics/SVG/1.1/DTD/svg11.dtd"> 
<svg
  xmlns:svg="http://www.w3.org/2000/svg"
  xmlns="http://www.w3.org/2000/svg"
  xmlns:xlink="http://www.w3.org/1999/xlink"
  version="1.1"
  width="297.0022mm" height="210.0072mm" viewBox="0.0000 0.0000 297.0022 210.0072">
<title>SVG Image created as steppersynth-F_Silkscreen.svg date 2025/12/14 17:11:25 </title>
  <desc>Image generated by PCBNEW </desc>
<g style="fill:#000000; fill-opacity:1.0000;stroke:#000000; stroke-opacity:1.0000;
stroke-linecap:round; stroke-linejoin:round;"
 transform="translate(0 0) scale(1 1)">
</g>
<g style="fill:none; 
stroke:#000000; stroke-width:0.1500; stroke-opacity:1; 
stroke-linecap:round; stroke-linejoin:round;">
<text x="279.9000" y="95.7000"
textLength="2.9643" font-size="1.3333" lengthAdjust="spacingAndGlyphs"
text-anchor="middle" opacity="0" stroke-opacity="0">TP1</text>
<g class="stroked-text"><desc>TP1</desc>
<path d="M278.6381 94.6548
L279.2095 94.6548
" />
<path d="M278.9238 95.6548
L278.9238 94.6548
" />
<path d="M279.5429 95.6548
L279.5429 94.6548
" />
<path d="M279.5429 94.6548
L279.9238 94.6548
" />
<path d="M279.9238 94.6548
L280.0190 94.7024
" />
<path d="M280.0190 94.7024
L280.0667 94.7501
" />
<path d="M280.0667 94.7501
L280.1143 94.8453
" />
<path d="M280.1143 94.8453
L280.1143 94.9882
" />
<path d="M280.1143 94.9882
L280.0667 95.0834
" />
<path d="M280.0667 95.0834
L280.0190 95.1310
" />
<path d="M280.0190 95.1310
L279.9238 95.1786
" />
<path d="M279.9238 95.1786
L279.5429 95.1786
" />
<path d="M281.0667 95.6548
L280.4952 95.6548
" />
<path d="M280.7810 95.6548
L280.7810 94.6548
" />
<path d="M280.7810 94.6548
L280.6857 94.7977
" />
<path d="M280.6857 94.7977
L280.5905 94.8929
" />
<path d="M280.5905 94.8929
L280.4952 94.9405
" />
</g><text x="126.0000" y="75.8000"
textLength="2.2024" font-size="1.3333" lengthAdjust="spacingAndGlyphs"
text-anchor="middle" opacity="0" stroke-opacity="0">D9</text>
<g class="stroked-text"><desc>D9</desc>
<path d="M125.2619 75.7548
L125.2619 74.7548
" />
<path d="M125.2619 74.7548
L125.5000 74.7548
" />
<path d="M125.5000 74.7548
L125.6429 74.8024
" />
<path d="M125.6429 74.8024
L125.7381 74.8977
" />
<path d="M125.7381 74.8977
L125.7857 74.9929
" />
<path d="M125.7857 74.9929
L125.8333 75.1834
" />
<path d="M125.8333 75.1834
L125.8333 75.3262
" />
<path d="M125.8333 75.3262
L125.7857 75.5167
" />
<path d="M125.7857 75.5167
L125.7381 75.6120
" />
<path d="M125.7381 75.6120
L125.6429 75.7072
" />
<path d="M125.6429 75.7072
L125.5000 75.7548
" />
<path d="M125.5000 75.7548
L125.2619 75.7548
" />
<path d="M126.3095 75.7548
L126.5000 75.7548
" />
<path d="M126.5000 75.7548
L126.5952 75.7072
" />
<path d="M126.5952 75.7072
L126.6429 75.6596
" />
<path d="M126.6429 75.6596
L126.7381 75.5167
" />
<path d="M126.7381 75.5167
L126.7857 75.3262
" />
<path d="M126.7857 75.3262
L126.7857 74.9453
" />
<path d="M126.7857 74.9453
L126.7381 74.8501
" />
<path d="M126.7381 74.8501
L126.6905 74.8024
" />
<path d="M126.6905 74.8024
L126.5952 74.7548
" />
<path d="M126.5952 74.7548
L126.4048 74.7548
" />
<path d="M126.4048 74.7548
L126.3095 74.8024
" />
<path d="M126.3095 74.8024
L126.2619 74.8501
" />
<path d="M126.2619 74.8501
L126.2143 74.9453
" />
<path d="M126.2143 74.9453
L126.2143 75.1834
" />
<path d="M126.2143 75.1834
L126.2619 75.2786
" />
<path d="M126.2619 75.2786
L126.3095 75.3262
" />
<path d="M126.3095 75.3262
L126.4048 75.3739
" />
<path d="M126.4048 75.3739
L126.5952 75.3739
" />
<path d="M126.5952 75.3739
L126.6905 75.3262
" />
<path d="M126.6905 75.3262
L126.7381 75.2786
" />
<path d="M126.7381 75.2786
L126.7857 75.1834
" />
</g><text x="62.4286" y="75.8000"
textLength="2.2024" font-size="1.3333" lengthAdjust="spacingAndGlyphs"
text-anchor="middle" opacity="0" stroke-opacity="0">D4</text>
<g class="stroked-text"><desc>D4</desc>
<path d="M61.6905 75.7548
L61.6905 74.7548
" />
<path d="M61.6905 74.7548
L61.9286 74.7548
" />
<path d="M61.9286 74.7548
L62.0714 74.8024
" />
<path d="M62.0714 74.8024
L62.1667 74.8977
" />
<path d="M62.1667 74.8977
L62.2143 74.9929
" />
<path d="M62.2143 74.9929
L62.2619 75.1834
" />
<path d="M62.2619 75.1834
L62.2619 75.3262
" />
<path d="M62.2619 75.3262
L62.2143 75.5167
" />
<path d="M62.2143 75.5167
L62.1667 75.6120
" />
<path d="M62.1667 75.6120
L62.0714 75.7072
" />
<path d="M62.0714 75.7072
L61.9286 75.7548
" />
<path d="M61.9286 75.7548
L61.6905 75.7548
" />
<path d="M63.1190 75.0882
L63.1190 75.7548
" />
<path d="M62.8810 74.7072
L62.6429 75.4215
" />
<path d="M62.6429 75.4215
L63.2619 75.4215
" />
</g><text x="75.1429" y="75.8000"
textLength="2.2024" font-size="1.3333" lengthAdjust="spacingAndGlyphs"
text-anchor="middle" opacity="0" stroke-opacity="0">D5</text>
<g class="stroked-text"><desc>D5</desc>
<path d="M74.4048 75.7548
L74.4048 74.7548
" />
<path d="M74.4048 74.7548
L74.6429 74.7548
" />
<path d="M74.6429 74.7548
L74.7857 74.8024
" />
<path d="M74.7857 74.8024
L74.8810 74.8977
" />
<path d="M74.8810 74.8977
L74.9286 74.9929
" />
<path d="M74.9286 74.9929
L74.9762 75.1834
" />
<path d="M74.9762 75.1834
L74.9762 75.3262
" />
<path d="M74.9762 75.3262
L74.9286 75.5167
" />
<path d="M74.9286 75.5167
L74.8810 75.6120
" />
<path d="M74.8810 75.6120
L74.7857 75.7072
" />
<path d="M74.7857 75.7072
L74.6429 75.7548
" />
<path d="M74.6429 75.7548
L74.4048 75.7548
" />
<path d="M75.8810 74.7548
L75.4048 74.7548
" />
<path d="M75.4048 74.7548
L75.3571 75.2310
" />
<path d="M75.3571 75.2310
L75.4048 75.1834
" />
<path d="M75.4048 75.1834
L75.5000 75.1358
" />
<path d="M75.5000 75.1358
L75.7381 75.1358
" />
<path d="M75.7381 75.1358
L75.8333 75.1834
" />
<path d="M75.8333 75.1834
L75.8810 75.2310
" />
<path d="M75.8810 75.2310
L75.9286 75.3262
" />
<path d="M75.9286 75.3262
L75.9286 75.5643
" />
<path d="M75.9286 75.5643
L75.8810 75.6596
" />
<path d="M75.8810 75.6596
L75.8333 75.7072
" />
<path d="M75.8333 75.7072
L75.7381 75.7548
" />
<path d="M75.7381 75.7548
L75.5000 75.7548
" />
<path d="M75.5000 75.7548
L75.4048 75.7072
" />
<path d="M75.4048 75.7072
L75.3571 75.6596
" />
</g><text x="100.5714" y="75.8000"
textLength="2.2024" font-size="1.3333" lengthAdjust="spacingAndGlyphs"
text-anchor="middle" opacity="0" stroke-opacity="0">D7</text>
<g class="stroked-text"><desc>D7</desc>
<path d="M99.8333 75.7548
L99.8333 74.7548
" />
<path d="M99.8333 74.7548
L100.0714 74.7548
" />
<path d="M100.0714 74.7548
L100.2143 74.8024
" />
<path d="M100.2143 74.8024
L100.3095 74.8977
" />
<path d="M100.3095 74.8977
L100.3571 74.9929
" />
<path d="M100.3571 74.9929
L100.4048 75.1834
" />
<path d="M100.4048 75.1834
L100.4048 75.3262
" />
<path d="M100.4048 75.3262
L100.3571 75.5167
" />
<path d="M100.3571 75.5167
L100.3095 75.6120
" />
<path d="M100.3095 75.6120
L100.2143 75.7072
" />
<path d="M100.2143 75.7072
L100.0714 75.7548
" />
<path d="M100.0714 75.7548
L99.8333 75.7548
" />
<path d="M100.7381 74.7548
L101.4048 74.7548
" />
<path d="M101.4048 74.7548
L100.9762 75.7548
" />
</g><text x="113.2857" y="75.8000"
textLength="2.2024" font-size="1.3333" lengthAdjust="spacingAndGlyphs"
text-anchor="middle" opacity="0" stroke-opacity="0">D8</text>
<g class="stroked-text"><desc>D8</desc>
<path d="M112.5476 75.7548
L112.5476 74.7548
" />
<path d="M112.5476 74.7548
L112.7857 74.7548
" />
<path d="M112.7857 74.7548
L112.9286 74.8024
" />
<path d="M112.9286 74.8024
L113.0238 74.8977
" />
<path d="M113.0238 74.8977
L113.0714 74.9929
" />
<path d="M113.0714 74.9929
L113.1190 75.1834
" />
<path d="M113.1190 75.1834
L113.1190 75.3262
" />
<path d="M113.1190 75.3262
L113.0714 75.5167
" />
<path d="M113.0714 75.5167
L113.0238 75.6120
" />
<path d="M113.0238 75.6120
L112.9286 75.7072
" />
<path d="M112.9286 75.7072
L112.7857 75.7548
" />
<path d="M112.7857 75.7548
L112.5476 75.7548
" />
<path d="M113.6905 75.1834
L113.5952 75.1358
" />
<path d="M113.5952 75.1358
L113.5476 75.0882
" />
<path d="M113.5476 75.0882
L113.5000 74.9929
" />
<path d="M113.5000 74.9929
L113.5000 74.9453
" />
<path d="M113.5000 74.9453
L113.5476 74.8501
" />
<path d="M113.5476 74.8501
L113.5952 74.8024
" />
<path d="M113.5952 74.8024
L113.6905 74.7548
" />
<path d="M113.6905 74.7548
L113.8810 74.7548
" />
<path d="M113.8810 74.7548
L113.9762 74.8024
" />
<path d="M113.9762 74.8024
L114.0238 74.8501
" />
<path d="M114.0238 74.8501
L114.0714 74.9453
" />
<path d="M114.0714 74.9453
L114.0714 74.9929
" />
<path d="M114.0714 74.9929
L114.0238 75.0882
" />
<path d="M114.0238 75.0882
L113.9762 75.1358
" />
<path d="M113.9762 75.1358
L113.8810 75.1834
" />
<path d="M113.8810 75.1834
L113.6905 75.1834
" />
<path d="M113.6905 75.1834
L113.5952 75.2310
" />
<path d="M113.5952 75.2310
L113.5476 75.2786
" />
<path d="M113.5476 75.2786
L113.5000 75.3739
" />
<path d="M113.5000 75.3739
L113.5000 75.5643
" />
<path d="M113.5000 75.5643
L113.5476 75.6596
" />
<path d="M113.5476 75.6596
L113.5952 75.7072
" />
<path d="M113.5952 75.7072
L113.6905 75.7548
" />
<path d="M113.6905 75.7548
L113.8810 75.7548
" />
<path d="M113.8810 75.7548
L113.9762 75.7072
" />
<path d="M113.9762 75.7072
L114.0238 75.6596
" />
<path d="M114.0238 75.6596
L114.0714 75.5643
" />
<path d="M114.0714 75.5643
L114.0714 75.3739
" />
<path d="M114.0714 75.3739
L114.0238 75.2786
" />
<path d="M114.0238 75.2786
L113.9762 75.2310
" />
<path d="M113.9762 75.2310
L113.8810 75.1834
" />
</g><text x="37.0000" y="75.8000"
textLength="2.2024" font-size="1.3333" lengthAdjust="spacingAndGlyphs"
text-anchor="middle" opacity="0" stroke-opacity="0">D2</text>
<g class="stroked-text"><desc>D2</desc>
<path d="M36.2619 75.7548
L36.2619 74.7548
" />
<path d="M36.2619 74.7548
L36.5000 74.7548
" />
<path d="M36.5000 74.7548
L36.6429 74.8024
" />
<path d="M36.6429 74.8024
L36.7381 74.8977
" />
<path d="M36.7381 74.8977
L36.7857 74.9929
" />
<path d="M36.7857 74.9929
L36.8333 75.1834
" />
<path d="M36.8333 75.1834
L36.8333 75.3262
" />
<path d="M36.8333 75.3262
L36.7857 75.5167
" />
<path d="M36.7857 75.5167
L36.7381 75.6120
" />
<path d="M36.7381 75.6120
L36.6429 75.7072
" />
<path d="M36.6429 75.7072
L36.5000 75.7548
" />
<path d="M36.5000 75.7548
L36.2619 75.7548
" />
<path d="M37.2143 74.8501
L37.2619 74.8024
" />
<path d="M37.2619 74.8024
L37.3571 74.7548
" />
<path d="M37.3571 74.7548
L37.5952 74.7548
" />
<path d="M37.5952 74.7548
L37.6905 74.8024
" />
<path d="M37.6905 74.8024
L37.7381 74.8501
" />
<path d="M37.7381 74.8501
L37.7857 74.9453
" />
<path d="M37.7857 74.9453
L37.7857 75.0405
" />
<path d="M37.7857 75.0405
L37.7381 75.1834
" />
<path d="M37.7381 75.1834
L37.1667 75.7548
" />
<path d="M37.1667 75.7548
L37.7857 75.7548
" />
</g><text x="41.0500" y="58.3000"
textLength="3.2976" font-size="1.3333" lengthAdjust="spacingAndGlyphs"
text-anchor="middle" opacity="0" stroke-opacity="0">SW2</text>
<g class="stroked-text"><desc>SW2</desc>
<path d="M39.7167 58.2072
L39.8595 58.2548
" />
<path d="M39.8595 58.2548
L40.0976 58.2548
" />
<path d="M40.0976 58.2548
L40.1929 58.2072
" />
<path d="M40.1929 58.2072
L40.2405 58.1596
" />
<path d="M40.2405 58.1596
L40.2881 58.0643
" />
<path d="M40.2881 58.0643
L40.2881 57.9691
" />
<path d="M40.2881 57.9691
L40.2405 57.8739
" />
<path d="M40.2405 57.8739
L40.1929 57.8262
" />
<path d="M40.1929 57.8262
L40.0976 57.7786
" />
<path d="M40.0976 57.7786
L39.9071 57.7310
" />
<path d="M39.9071 57.7310
L39.8119 57.6834
" />
<path d="M39.8119 57.6834
L39.7643 57.6358
" />
<path d="M39.7643 57.6358
L39.7167 57.5405
" />
<path d="M39.7167 57.5405
L39.7167 57.4453
" />
<path d="M39.7167 57.4453
L39.7643 57.3501
" />
<path d="M39.7643 57.3501
L39.8119 57.3024
" />
<path d="M39.8119 57.3024
L39.9071 57.2548
" />
<path d="M39.9071 57.2548
L40.1452 57.2548
" />
<path d="M40.1452 57.2548
L40.2881 57.3024
" />
<path d="M40.6214 57.2548
L40.8595 58.2548
" />
<path d="M40.8595 58.2548
L41.0500 57.5405
" />
<path d="M41.0500 57.5405
L41.2405 58.2548
" />
<path d="M41.2405 58.2548
L41.4786 57.2548
" />
<path d="M41.8119 57.3501
L41.8595 57.3024
" />
<path d="M41.8595 57.3024
L41.9548 57.2548
" />
<path d="M41.9548 57.2548
L42.1929 57.2548
" />
<path d="M42.1929 57.2548
L42.2881 57.3024
" />
<path d="M42.2881 57.3024
L42.3357 57.3501
" />
<path d="M42.3357 57.3501
L42.3833 57.4453
" />
<path d="M42.3833 57.4453
L42.3833 57.5405
" />
<path d="M42.3833 57.5405
L42.3357 57.6834
" />
<path d="M42.3357 57.6834
L41.7643 58.2548
" />
<path d="M41.7643 58.2548
L42.3833 58.2548
" />
</g><text x="49.7143" y="75.8000"
textLength="2.2024" font-size="1.3333" lengthAdjust="spacingAndGlyphs"
text-anchor="middle" opacity="0" stroke-opacity="0">D3</text>
<g class="stroked-text"><desc>D3</desc>
<path d="M48.9762 75.7548
L48.9762 74.7548
" />
<path d="M48.9762 74.7548
L49.2143 74.7548
" />
<path d="M49.2143 74.7548
L49.3571 74.8024
" />
<path d="M49.3571 74.8024
L49.4524 74.8977
" />
<path d="M49.4524 74.8977
L49.5000 74.9929
" />
<path d="M49.5000 74.9929
L49.5476 75.1834
" />
<path d="M49.5476 75.1834
L49.5476 75.3262
" />
<path d="M49.5476 75.3262
L49.5000 75.5167
" />
<path d="M49.5000 75.5167
L49.4524 75.6120
" />
<path d="M49.4524 75.6120
L49.3571 75.7072
" />
<path d="M49.3571 75.7072
L49.2143 75.7548
" />
<path d="M49.2143 75.7548
L48.9762 75.7548
" />
<path d="M49.8810 74.7548
L50.5000 74.7548
" />
<path d="M50.5000 74.7548
L50.1667 75.1358
" />
<path d="M50.1667 75.1358
L50.3095 75.1358
" />
<path d="M50.3095 75.1358
L50.4048 75.1834
" />
<path d="M50.4048 75.1834
L50.4524 75.2310
" />
<path d="M50.4524 75.2310
L50.5000 75.3262
" />
<path d="M50.5000 75.3262
L50.5000 75.5643
" />
<path d="M50.5000 75.5643
L50.4524 75.6596
" />
<path d="M50.4524 75.6596
L50.4048 75.7072
" />
<path d="M50.4048 75.7072
L50.3095 75.7548
" />
<path d="M50.3095 75.7548
L50.0238 75.7548
" />
<path d="M50.0238 75.7548
L49.9286 75.7072
" />
<path d="M49.9286 75.7072
L49.8810 75.6596
" />
</g><text x="86.5500" y="58.3000"
textLength="3.2976" font-size="1.3333" lengthAdjust="spacingAndGlyphs"
text-anchor="middle" opacity="0" stroke-opacity="0">SW6</text>
<g class="stroked-text"><desc>SW6</desc>
<path d="M85.2167 58.2072
L85.3595 58.2548
" />
<path d="M85.3595 58.2548
L85.5976 58.2548
" />
<path d="M85.5976 58.2548
L85.6929 58.2072
" />
<path d="M85.6929 58.2072
L85.7405 58.1596
" />
<path d="M85.7405 58.1596
L85.7881 58.0643
" />
<path d="M85.7881 58.0643
L85.7881 57.9691
" />
<path d="M85.7881 57.9691
L85.7405 57.8739
" />
<path d="M85.7405 57.8739
L85.6929 57.8262
" />
<path d="M85.6929 57.8262
L85.5976 57.7786
" />
<path d="M85.5976 57.7786
L85.4071 57.7310
" />
<path d="M85.4071 57.7310
L85.3119 57.6834
" />
<path d="M85.3119 57.6834
L85.2643 57.6358
" />
<path d="M85.2643 57.6358
L85.2167 57.5405
" />
<path d="M85.2167 57.5405
L85.2167 57.4453
" />
<path d="M85.2167 57.4453
L85.2643 57.3501
" />
<path d="M85.2643 57.3501
L85.3119 57.3024
" />
<path d="M85.3119 57.3024
L85.4071 57.2548
" />
<path d="M85.4071 57.2548
L85.6452 57.2548
" />
<path d="M85.6452 57.2548
L85.7881 57.3024
" />
<path d="M86.1214 57.2548
L86.3595 58.2548
" />
<path d="M86.3595 58.2548
L86.5500 57.5405
" />
<path d="M86.5500 57.5405
L86.7405 58.2548
" />
<path d="M86.7405 58.2548
L86.9786 57.2548
" />
<path d="M87.7881 57.2548
L87.5976 57.2548
" />
<path d="M87.5976 57.2548
L87.5024 57.3024
" />
<path d="M87.5024 57.3024
L87.4548 57.3501
" />
<path d="M87.4548 57.3501
L87.3595 57.4929
" />
<path d="M87.3595 57.4929
L87.3119 57.6834
" />
<path d="M87.3119 57.6834
L87.3119 58.0643
" />
<path d="M87.3119 58.0643
L87.3595 58.1596
" />
<path d="M87.3595 58.1596
L87.4071 58.2072
" />
<path d="M87.4071 58.2072
L87.5024 58.2548
" />
<path d="M87.5024 58.2548
L87.6929 58.2548
" />
<path d="M87.6929 58.2548
L87.7881 58.2072
" />
<path d="M87.7881 58.2072
L87.8357 58.1596
" />
<path d="M87.8357 58.1596
L87.8833 58.0643
" />
<path d="M87.8833 58.0643
L87.8833 57.8262
" />
<path d="M87.8833 57.8262
L87.8357 57.7310
" />
<path d="M87.8357 57.7310
L87.7881 57.6834
" />
<path d="M87.7881 57.6834
L87.6929 57.6358
" />
<path d="M87.6929 57.6358
L87.5024 57.6358
" />
<path d="M87.5024 57.6358
L87.4071 57.6834
" />
<path d="M87.4071 57.6834
L87.3595 57.7310
" />
<path d="M87.3595 57.7310
L87.3119 57.8262
" />
</g><text x="63.8000" y="58.3000"
textLength="3.2976" font-size="1.3333" lengthAdjust="spacingAndGlyphs"
text-anchor="middle" opacity="0" stroke-opacity="0">SW5</text>
<g class="stroked-text"><desc>SW5</desc>
<path d="M62.4667 58.2072
L62.6095 58.2548
" />
<path d="M62.6095 58.2548
L62.8476 58.2548
" />
<path d="M62.8476 58.2548
L62.9429 58.2072
" />
<path d="M62.9429 58.2072
L62.9905 58.1596
" />
<path d="M62.9905 58.1596
L63.0381 58.0643
" />
<path d="M63.0381 58.0643
L63.0381 57.9691
" />
<path d="M63.0381 57.9691
L62.9905 57.8739
" />
<path d="M62.9905 57.8739
L62.9429 57.8262
" />
<path d="M62.9429 57.8262
L62.8476 57.7786
" />
<path d="M62.8476 57.7786
L62.6571 57.7310
" />
<path d="M62.6571 57.7310
L62.5619 57.6834
" />
<path d="M62.5619 57.6834
L62.5143 57.6358
" />
<path d="M62.5143 57.6358
L62.4667 57.5405
" />
<path d="M62.4667 57.5405
L62.4667 57.4453
" />
<path d="M62.4667 57.4453
L62.5143 57.3501
" />
<path d="M62.5143 57.3501
L62.5619 57.3024
" />
<path d="M62.5619 57.3024
L62.6571 57.2548
" />
<path d="M62.6571 57.2548
L62.8952 57.2548
" />
<path d="M62.8952 57.2548
L63.0381 57.3024
" />
<path d="M63.3714 57.2548
L63.6095 58.2548
" />
<path d="M63.6095 58.2548
L63.8000 57.5405
" />
<path d="M63.8000 57.5405
L63.9905 58.2548
" />
<path d="M63.9905 58.2548
L64.2286 57.2548
" />
<path d="M65.0857 57.2548
L64.6095 57.2548
" />
<path d="M64.6095 57.2548
L64.5619 57.7310
" />
<path d="M64.5619 57.7310
L64.6095 57.6834
" />
<path d="M64.6095 57.6834
L64.7048 57.6358
" />
<path d="M64.7048 57.6358
L64.9429 57.6358
" />
<path d="M64.9429 57.6358
L65.0381 57.6834
" />
<path d="M65.0381 57.6834
L65.0857 57.7310
" />
<path d="M65.0857 57.7310
L65.1333 57.8262
" />
<path d="M65.1333 57.8262
L65.1333 58.0643
" />
<path d="M65.1333 58.0643
L65.0857 58.1596
" />
<path d="M65.0857 58.1596
L65.0381 58.2072
" />
<path d="M65.0381 58.2072
L64.9429 58.2548
" />
<path d="M64.9429 58.2548
L64.7048 58.2548
" />
<path d="M64.7048 58.2548
L64.6095 58.2072
" />
<path d="M64.6095 58.2072
L64.5619 58.1596
" />
</g><text x="279.7000" y="105.9000"
textLength="2.9643" font-size="1.3333" lengthAdjust="spacingAndGlyphs"
text-anchor="middle" opacity="0" stroke-opacity="0">TP2</text>
<g class="stroked-text"><desc>TP2</desc>
<path d="M278.4381 104.8548
L279.0095 104.8548
" />
<path d="M278.7238 105.8548
L278.7238 104.8548
" />
<path d="M279.3429 105.8548
L279.3429 104.8548
" />
<path d="M279.3429 104.8548
L279.7238 104.8548
" />
<path d="M279.7238 104.8548
L279.8190 104.9024
" />
<path d="M279.8190 104.9024
L279.8667 104.9501
" />
<path d="M279.8667 104.9501
L279.9143 105.0453
" />
<path d="M279.9143 105.0453
L279.9143 105.1882
" />
<path d="M279.9143 105.1882
L279.8667 105.2834
" />
<path d="M279.8667 105.2834
L279.8190 105.3310
" />
<path d="M279.8190 105.3310
L279.7238 105.3786
" />
<path d="M279.7238 105.3786
L279.3429 105.3786
" />
<path d="M280.2952 104.9501
L280.3429 104.9024
" />
<path d="M280.3429 104.9024
L280.4381 104.8548
" />
<path d="M280.4381 104.8548
L280.6762 104.8548
" />
<path d="M280.6762 104.8548
L280.7714 104.9024
" />
<path d="M280.7714 104.9024
L280.8190 104.9501
" />
<path d="M280.8190 104.9501
L280.8667 105.0453
" />
<path d="M280.8667 105.0453
L280.8667 105.1405
" />
<path d="M280.8667 105.1405
L280.8190 105.2834
" />
<path d="M280.8190 105.2834
L280.2476 105.8548
" />
<path d="M280.2476 105.8548
L280.8667 105.8548
" />
</g><text x="111.4000" y="61.2500"
textLength="3.2976" font-size="1.3333" lengthAdjust="spacingAndGlyphs"
text-anchor="middle" opacity="0" stroke-opacity="0">SW1</text>
<g class="stroked-text"><desc>SW1</desc>
<path d="M110.0667 61.1572
L110.2095 61.2048
" />
<path d="M110.2095 61.2048
L110.4476 61.2048
" />
<path d="M110.4476 61.2048
L110.5429 61.1572
" />
<path d="M110.5429 61.1572
L110.5905 61.1096
" />
<path d="M110.5905 61.1096
L110.6381 61.0143
" />
<path d="M110.6381 61.0143
L110.6381 60.9191
" />
<path d="M110.6381 60.9191
L110.5905 60.8239
" />
<path d="M110.5905 60.8239
L110.5429 60.7762
" />
<path d="M110.5429 60.7762
L110.4476 60.7286
" />
<path d="M110.4476 60.7286
L110.2571 60.6810
" />
<path d="M110.2571 60.6810
L110.1619 60.6334
" />
<path d="M110.1619 60.6334
L110.1143 60.5858
" />
<path d="M110.1143 60.5858
L110.0667 60.4905
" />
<path d="M110.0667 60.4905
L110.0667 60.3953
" />
<path d="M110.0667 60.3953
L110.1143 60.3001
" />
<path d="M110.1143 60.3001
L110.1619 60.2524
" />
<path d="M110.1619 60.2524
L110.2571 60.2048
" />
<path d="M110.2571 60.2048
L110.4952 60.2048
" />
<path d="M110.4952 60.2048
L110.6381 60.2524
" />
<path d="M110.9714 60.2048
L111.2095 61.2048
" />
<path d="M111.2095 61.2048
L111.4000 60.4905
" />
<path d="M111.4000 60.4905
L111.5905 61.2048
" />
<path d="M111.5905 61.2048
L111.8286 60.2048
" />
<path d="M112.7333 61.2048
L112.1619 61.2048
" />
<path d="M112.4476 61.2048
L112.4476 60.2048
" />
<path d="M112.4476 60.2048
L112.3524 60.3477
" />
<path d="M112.3524 60.3477
L112.2571 60.4429
" />
<path d="M112.2571 60.4429
L112.1619 60.4905
" />
</g><text x="87.8571" y="75.8000"
textLength="2.2024" font-size="1.3333" lengthAdjust="spacingAndGlyphs"
text-anchor="middle" opacity="0" stroke-opacity="0">D6</text>
<g class="stroked-text"><desc>D6</desc>
<path d="M87.1190 75.7548
L87.1190 74.7548
" />
<path d="M87.1190 74.7548
L87.3571 74.7548
" />
<path d="M87.3571 74.7548
L87.5000 74.8024
" />
<path d="M87.5000 74.8024
L87.5952 74.8977
" />
<path d="M87.5952 74.8977
L87.6429 74.9929
" />
<path d="M87.6429 74.9929
L87.6905 75.1834
" />
<path d="M87.6905 75.1834
L87.6905 75.3262
" />
<path d="M87.6905 75.3262
L87.6429 75.5167
" />
<path d="M87.6429 75.5167
L87.5952 75.6120
" />
<path d="M87.5952 75.6120
L87.5000 75.7072
" />
<path d="M87.5000 75.7072
L87.3571 75.7548
" />
<path d="M87.3571 75.7548
L87.1190 75.7548
" />
<path d="M88.5476 74.7548
L88.3571 74.7548
" />
<path d="M88.3571 74.7548
L88.2619 74.8024
" />
<path d="M88.2619 74.8024
L88.2143 74.8501
" />
<path d="M88.2143 74.8501
L88.1190 74.9929
" />
<path d="M88.1190 74.9929
L88.0714 75.1834
" />
<path d="M88.0714 75.1834
L88.0714 75.5643
" />
<path d="M88.0714 75.5643
L88.1190 75.6596
" />
<path d="M88.1190 75.6596
L88.1667 75.7072
" />
<path d="M88.1667 75.7072
L88.2619 75.7548
" />
<path d="M88.2619 75.7548
L88.4524 75.7548
" />
<path d="M88.4524 75.7548
L88.5476 75.7072
" />
<path d="M88.5476 75.7072
L88.5952 75.6596
" />
<path d="M88.5952 75.6596
L88.6429 75.5643
" />
<path d="M88.6429 75.5643
L88.6429 75.3262
" />
<path d="M88.6429 75.3262
L88.5952 75.2310
" />
<path d="M88.5952 75.2310
L88.5476 75.1834
" />
<path d="M88.5476 75.1834
L88.4524 75.1358
" />
<path d="M88.4524 75.1358
L88.2619 75.1358
" />
<path d="M88.2619 75.1358
L88.1667 75.1834
" />
<path d="M88.1667 75.1834
L88.1190 75.2310
" />
<path d="M88.1190 75.2310
L88.0714 75.3262
" />
</g></g>
<g style="fill:none; 
stroke:#000000; stroke-width:0.1200; stroke-opacity:1; 
stroke-linecap:round; stroke-linejoin:round;">
<path d="M122.3217 100.4050
L136.2917 100.4050
" />
<path d="M122.3217 114.3750
L122.3217 100.4050
" />
<path d="M136.2917 100.4050
L136.2917 114.3750
" />
<path d="M136.2917 114.3750
L122.3217 114.3750
" />
<path d="M74.6900 119.4450
L88.6600 119.4450
" />
<path d="M74.6900 133.4150
L74.6900 119.4450
" />
<path d="M88.6600 119.4450
L88.6600 133.4150
" />
<path d="M88.6600 133.4150
L74.6900 133.4150
" />
<path d="M217.5633 100.4050
L231.5333 100.4050
" />
<path d="M217.5633 114.3750
L217.5633 100.4050
" />
<path d="M231.5333 100.4050
L231.5333 114.3750
" />
<path d="M231.5333 114.3750
L217.5633 114.3750
" />
<path d="M236.6100 57.5550
L250.5800 57.5550
" />
<path d="M236.6100 71.5250
L236.6100 57.5550
" />
<path d="M250.5800 57.5550
L250.5800 71.5250
" />
<path d="M250.5800 71.5250
L236.6100 71.5250
" />
<path d="M169.9267 76.5950
L183.8967 76.5950
" />
<path d="M169.9267 90.5650
L169.9267 76.5950
" />
<path d="M183.8967 76.5950
L183.8967 90.5650
" />
<path d="M183.8967 90.5650
L169.9267 90.5650
" />
<path d="M125.2600 76.9300
L125.2600 81.9800
" />
<path d="M125.7100 76.4800
L125.2600 76.9300
" />
<path d="M126.0600 78.3300
L126.0600 80.1300
" />
<path d="M131.4600 78.3300
L131.4600 80.1300
" />
<path d="M132.2600 76.4800
L125.7100 76.4800
" />
<path d="M132.2600 81.9800
L125.2600 81.9800
" />
<path d="M132.2600 81.9800
L132.2600 76.4800
" />
<path d="M160.4033 57.5550
L174.3733 57.5550
" />
<path d="M160.4033 71.5250
L160.4033 57.5550
" />
<path d="M174.3733 57.5550
L174.3733 71.5250
" />
<path d="M174.3733 71.5250
L160.4033 71.5250
" />
<path d="M227.0817 76.5950
L241.0517 76.5950
" />
<path d="M227.0817 90.5650
L227.0817 76.5950
" />
<path d="M241.0517 76.5950
L241.0517 90.5650
" />
<path d="M241.0517 90.5650
L227.0817 90.5650
" />
<path d="M61.6886 76.9300
L61.6886 81.9800
" />
<path d="M62.1386 76.4800
L61.6886 76.9300
" />
<path d="M62.4886 78.3300
L62.4886 80.1300
" />
<path d="M67.8886 78.3300
L67.8886 80.1300
" />
<path d="M68.6886 76.4800
L62.1386 76.4800
" />
<path d="M68.6886 81.9800
L61.6886 81.9800
" />
<path d="M68.6886 81.9800
L68.6886 76.4800
" />
<path d="M84.2183 100.4050
L98.1883 100.4050
" />
<path d="M84.2183 114.3750
L84.2183 100.4050
" />
<path d="M98.1883 100.4050
L98.1883 114.3750
" />
<path d="M98.1883 114.3750
L84.2183 114.3750
" />
<path d="M17.5350 119.4450
L31.5050 119.4450
" />
<path d="M17.5350 133.4150
L17.5350 119.4450
" />
<path d="M31.5050 119.4450
L31.5050 133.4150
" />
<path d="M31.5050 133.4150
L17.5350 133.4150
" />
<path d="M74.4029 76.9300
L74.4029 81.9800
" />
<path d="M74.8529 76.4800
L74.4029 76.9300
" />
<path d="M75.2029 78.3300
L75.2029 80.1300
" />
<path d="M80.6029 78.3300
L80.6029 80.1300
" />
<path d="M81.4029 76.4800
L74.8529 76.4800
" />
<path d="M81.4029 81.9800
L74.4029 81.9800
" />
<path d="M81.4029 81.9800
L81.4029 76.4800
" />
<path d="M227.0867 119.4450
L241.0567 119.4450
" />
<path d="M227.0867 133.4150
L227.0867 119.4450
" />
<path d="M241.0567 119.4450
L241.0567 133.4150
" />
<path d="M241.0567 133.4150
L227.0867 133.4150
" />
<path d="M27.0633 100.4050
L41.0333 100.4050
" />
<path d="M27.0633 114.3750
L27.0633 100.4050
" />
<path d="M41.0333 100.4050
L41.0333 114.3750
" />
<path d="M41.0333 114.3750
L27.0633 114.3750
" />
<path d="M46.1150 100.4050
L60.0850 100.4050
" />
<path d="M46.1150 114.3750
L46.1150 100.4050
" />
<path d="M60.0850 100.4050
L60.0850 114.3750
" />
<path d="M60.0850 114.3750
L46.1150 114.3750
" />
<path d="M103.2700 100.4050
L117.2400 100.4050
" />
<path d="M103.2700 114.3750
L103.2700 100.4050
" />
<path d="M117.2400 100.4050
L117.2400 114.3750
" />
<path d="M117.2400 114.3750
L103.2700 114.3750
" />
<path d="M217.5583 57.5550
L231.5283 57.5550
" />
<path d="M217.5583 71.5250
L217.5583 57.5550
" />
<path d="M231.5283 57.5550
L231.5283 71.5250
" />
<path d="M231.5283 71.5250
L217.5583 71.5250
" />
<path d="M99.8314 76.9300
L99.8314 81.9800
" />
<path d="M100.2814 76.4800
L99.8314 76.9300
" />
<path d="M100.6314 78.3300
L100.6314 80.1300
" />
<path d="M106.0314 78.3300
L106.0314 80.1300
" />
<path d="M106.8314 76.4800
L100.2814 76.4800
" />
<path d="M106.8314 81.9800
L99.8314 81.9800
" />
<path d="M106.8314 81.9800
L106.8314 76.4800
" />
<path d="M188.9833 119.4450
L202.9533 119.4450
" />
<path d="M188.9833 133.4150
L188.9833 119.4450
" />
<path d="M202.9533 119.4450
L202.9533 133.4150
" />
<path d="M202.9533 133.4150
L188.9833 133.4150
" />
<path d="M36.5867 119.4450
L50.5567 119.4450
" />
<path d="M36.5867 133.4150
L36.5867 119.4450
" />
<path d="M50.5567 119.4450
L50.5567 133.4150
" />
<path d="M50.5567 133.4150
L36.5867 133.4150
" />
<path d="M112.5457 76.9300
L112.5457 81.9800
" />
<path d="M112.9957 76.4800
L112.5457 76.9300
" />
<path d="M113.3457 78.3300
L113.3457 80.1300
" />
<path d="M118.7457 78.3300
L118.7457 80.1300
" />
<path d="M119.5457 76.4800
L112.9957 76.4800
" />
<path d="M119.5457 81.9800
L112.5457 81.9800
" />
<path d="M119.5457 81.9800
L119.5457 76.4800
" />
<path d="M150.8750 76.5950
L164.8450 76.5950
" />
<path d="M150.8750 90.5650
L150.8750 76.5950
" />
<path d="M164.8450 76.5950
L164.8450 90.5650
" />
<path d="M164.8450 90.5650
L150.8750 90.5650
" />
<path d="M55.6383 119.4450
L69.6083 119.4450
" />
<path d="M55.6383 133.4150
L55.6383 119.4450
" />
<path d="M69.6083 119.4450
L69.6083 133.4150
" />
<path d="M69.6083 133.4150
L55.6383 133.4150
" />
<path d="M169.9317 119.4450
L183.9017 119.4450
" />
<path d="M169.9317 133.4150
L169.9317 119.4450
" />
<path d="M183.9017 119.4450
L183.9017 133.4150
" />
<path d="M183.9017 133.4150
L169.9317 133.4150
" />
<path d="M179.4600 100.4050
L193.4300 100.4050
" />
<path d="M179.4600 114.3750
L179.4600 100.4050
" />
<path d="M193.4300 100.4050
L193.4300 114.3750
" />
<path d="M193.4300 114.3750
L179.4600 114.3750
" />
<path d="M265.1900 119.4450
L279.1600 119.4450
" />
<path d="M265.1900 133.4150
L265.1900 119.4450
" />
<path d="M279.1600 119.4450
L279.1600 133.4150
" />
<path d="M279.1600 133.4150
L265.1900 133.4150
" />
<path d="M36.2600 76.9300
L36.2600 81.9800
" />
<path d="M36.7100 76.4800
L36.2600 76.9300
" />
<path d="M37.0600 78.3300
L37.0600 80.1300
" />
<path d="M42.4600 78.3300
L42.4600 80.1300
" />
<path d="M43.2600 76.4800
L36.7100 76.4800
" />
<path d="M43.2600 81.9800
L36.2600 81.9800
" />
<path d="M43.2600 81.9800
L43.2600 76.4800
" />
<path d="M37.9500 60.9000
L38.5500 60.9000
" />
<path d="M38.2500 61.2000
L37.9500 60.9000
" />
<path d="M38.5500 60.9000
L38.2500 61.2000
" />
<path d="M39.6500 59.1000
L39.6500 70.9000
" />
<path d="M43.7500 59.1000
L39.6500 59.1000
" />
<path d="M43.7500 70.9000
L39.6500 70.9000
" />
<path d="M45.2500 65.0000
L46.2500 65.0000
" />
<path d="M45.7500 64.5000
L45.7500 65.5000
" />
<path d="M47.7500 59.1000
L51.8500 59.1000
" />
<path d="M51.8500 59.1000
L51.8500 61.5000
" />
<path d="M51.8500 63.7000
L51.8500 66.3000
" />
<path d="M51.8500 68.5000
L51.8500 70.9000
" />
<path d="M51.8500 70.9000
L47.7500 70.9000
" />
<circle cx="45.7500" cy="65.0000" r="3.0000" /> 
<path d="M93.7417 119.4450
L107.7117 119.4450
" />
<path d="M93.7417 133.4150
L93.7417 119.4450
" />
<path d="M107.7117 119.4450
L107.7117 133.4150
" />
<path d="M107.7117 133.4150
L93.7417 133.4150
" />
<path d="M48.9743 76.9300
L48.9743 81.9800
" />
<path d="M49.4243 76.4800
L48.9743 76.9300
" />
<path d="M49.7743 78.3300
L49.7743 80.1300
" />
<path d="M55.1743 78.3300
L55.1743 80.1300
" />
<path d="M55.9743 76.4800
L49.4243 76.4800
" />
<path d="M55.9743 81.9800
L48.9743 81.9800
" />
<path d="M55.9743 81.9800
L55.9743 76.4800
" />
<path d="M255.6667 100.4050
L269.6367 100.4050
" />
<path d="M255.6667 114.3750
L255.6667 100.4050
" />
<path d="M269.6367 100.4050
L269.6367 114.3750
" />
<path d="M269.6367 114.3750
L255.6667 114.3750
" />
<path d="M83.4500 60.9000
L84.0500 60.9000
" />
<path d="M83.7500 61.2000
L83.4500 60.9000
" />
<path d="M84.0500 60.9000
L83.7500 61.2000
" />
<path d="M85.1500 59.1000
L85.1500 70.9000
" />
<path d="M89.2500 59.1000
L85.1500 59.1000
" />
<path d="M89.2500 70.9000
L85.1500 70.9000
" />
<path d="M90.7500 65.0000
L91.7500 65.0000
" />
<path d="M91.2500 64.5000
L91.2500 65.5000
" />
<path d="M93.2500 59.1000
L97.3500 59.1000
" />
<path d="M97.3500 59.1000
L97.3500 61.5000
" />
<path d="M97.3500 63.7000
L97.3500 66.3000
" />
<path d="M97.3500 68.5000
L97.3500 70.9000
" />
<path d="M97.3500 70.9000
L93.2500 70.9000
" />
<circle cx="91.2500" cy="65.0000" r="3.0000" /> 
<path d="M160.4083 100.4050
L174.3783 100.4050
" />
<path d="M160.4083 114.3750
L160.4083 100.4050
" />
<path d="M174.3783 100.4050
L174.3783 114.3750
" />
<path d="M174.3783 114.3750
L160.4083 114.3750
" />
<path d="M208.0300 76.5950
L222.0000 76.5950
" />
<path d="M208.0300 90.5650
L208.0300 76.5950
" />
<path d="M222.0000 76.5950
L222.0000 90.5650
" />
<path d="M222.0000 90.5650
L208.0300 90.5650
" />
<path d="M208.0350 119.4450
L222.0050 119.4450
" />
<path d="M208.0350 133.4150
L208.0350 119.4450
" />
<path d="M222.0050 119.4450
L222.0050 133.4150
" />
<path d="M222.0050 133.4150
L208.0350 133.4150
" />
<path d="M246.1333 76.5950
L260.1033 76.5950
" />
<path d="M246.1333 90.5650
L246.1333 76.5950
" />
<path d="M260.1033 76.5950
L260.1033 90.5650
" />
<path d="M260.1033 90.5650
L246.1333 90.5650
" />
<path d="M60.7000 60.9000
L61.3000 60.9000
" />
<path d="M61.0000 61.2000
L60.7000 60.9000
" />
<path d="M61.3000 60.9000
L61.0000 61.2000
" />
<path d="M62.4000 59.1000
L62.4000 70.9000
" />
<path d="M66.5000 59.1000
L62.4000 59.1000
" />
<path d="M66.5000 70.9000
L62.4000 70.9000
" />
<path d="M68.0000 65.0000
L69.0000 65.0000
" />
<path d="M68.5000 64.5000
L68.5000 65.5000
" />
<path d="M70.5000 59.1000
L74.6000 59.1000
" />
<path d="M74.6000 59.1000
L74.6000 61.5000
" />
<path d="M74.6000 63.7000
L74.6000 66.3000
" />
<path d="M74.6000 68.5000
L74.6000 70.9000
" />
<path d="M74.6000 70.9000
L70.5000 70.9000
" />
<circle cx="68.5000" cy="65.0000" r="3.0000" /> 
<path d="M150.8800 119.4450
L164.8500 119.4450
" />
<path d="M150.8800 133.4150
L150.8800 119.4450
" />
<path d="M164.8500 119.4450
L164.8500 133.4150
" />
<path d="M164.8500 133.4150
L150.8800 133.4150
" />
<path d="M179.4550 57.5550
L193.4250 57.5550
" />
<path d="M179.4550 71.5250
L179.4550 57.5550
" />
<path d="M193.4250 57.5550
L193.4250 71.5250
" />
<path d="M193.4250 71.5250
L179.4550 71.5250
" />
<path d="M236.6150 100.4050
L250.5850 100.4050
" />
<path d="M236.6150 114.3750
L236.6150 100.4050
" />
<path d="M250.5850 100.4050
L250.5850 114.3750
" />
<path d="M250.5850 114.3750
L236.6150 114.3750
" />
<path d="M246.1383 119.4450
L260.1083 119.4450
" />
<path d="M246.1383 133.4150
L246.1383 119.4450
" />
<path d="M260.1083 119.4450
L260.1083 133.4150
" />
<path d="M260.1083 133.4150
L246.1383 133.4150
" />
<path d="M131.8450 119.4450
L145.8150 119.4450
" />
<path d="M131.8450 133.4150
L131.8450 119.4450
" />
<path d="M145.8150 119.4450
L145.8150 133.4150
" />
<path d="M145.8150 133.4150
L131.8450 133.4150
" />
<path d="M107.9000 64.2500
L107.9000 65.7500
" />
<path d="M109.1500 68.2500
L113.6500 68.2500
" />
<path d="M113.6500 61.7500
L109.1500 61.7500
" />
<path d="M114.9000 65.7500
L114.9000 64.2500
" />
<path d="M87.1171 76.9300
L87.1171 81.9800
" />
<path d="M87.5671 76.4800
L87.1171 76.9300
" />
<path d="M87.9171 78.3300
L87.9171 80.1300
" />
<path d="M93.3171 78.3300
L93.3171 80.1300
" />
<path d="M94.1171 76.4800
L87.5671 76.4800
" />
<path d="M94.1171 81.9800
L87.1171 81.9800
" />
<path d="M94.1171 81.9800
L94.1171 76.4800
" />
<path d="M112.7933 119.4450
L126.7633 119.4450
" />
<path d="M112.7933 133.4150
L112.7933 119.4450
" />
<path d="M126.7633 119.4450
L126.7633 133.4150
" />
<path d="M126.7633 133.4150
L112.7933 133.4150
" />
<path d="M255.6617 57.5550
L269.6317 57.5550
" />
<path d="M255.6617 71.5250
L255.6617 57.5550
" />
<path d="M269.6317 57.5550
L269.6317 71.5250
" />
<path d="M269.6317 71.5250
L255.6617 71.5250
" />
<path d="M265.1850 76.5950
L279.1550 76.5950
" />
<path d="M265.1850 90.5650
L265.1850 76.5950
" />
<path d="M279.1550 76.5950
L279.1550 90.5650
" />
<path d="M279.1550 90.5650
L265.1850 90.5650
" />
<path d="M17.5450 57.5450
L31.5150 57.5450
" />
<path d="M17.5450 71.5150
L17.5450 57.5450
" />
<path d="M31.5150 57.5450
L31.5150 71.5150
" />
<path d="M31.5150 71.5150
L17.5450 71.5150
" />
<path d="M188.9783 76.5950
L202.9483 76.5950
" />
<path d="M188.9783 90.5650
L188.9783 76.5950
" />
<path d="M202.9483 76.5950
L202.9483 90.5650
" />
<path d="M202.9483 90.5650
L188.9783 90.5650
" />
<path d="M17.5350 76.5950
L31.5050 76.5950
" />
<path d="M17.5350 90.5650
L17.5350 76.5950
" />
<path d="M31.5050 76.5950
L31.5050 90.5650
" />
<path d="M31.5050 90.5650
L17.5350 90.5650
" />
</g> 
</svg>
