<svg width="266.7mm" height="80.963mm" viewBox="0 0 266.7 80.963" xmlns="http://www.w3.org/2000/svg"><g id="svgGroup" stroke-linecap="round" fill-rule="evenodd" font-size="9pt" stroke="#000" stroke-width="0.25mm" fill="none" style="stroke:#000;stroke-width:0.25mm;fill:none"><path d="M 0 80.963 L 266.7 80.963 L 266.7 0 L 0 0 L 0 80.963 Z M 3.025 21.575 L 16.025 21.575 A 0.5 0.5 0 0 1 16.525 22.075 L 16.525 35.075 A 0.5 0.5 0 0 1 16.025 35.575 L 3.025 35.575 A 0.5 0.5 0 0 1 2.525 35.075 L 2.525 22.075 A 0.5 0.5 0 0 1 3.025 21.575 Z M 136.375 21.575 L 149.375 21.575 A 0.5 0.5 0 0 1 149.875 22.075 L 149.875 35.075 A 0.5 0.5 0 0 1 149.375 35.575 L 136.375 35.575 A 0.5 0.5 0 0 1 135.875 35.075 L 135.875 22.075 A 0.5 0.5 0 0 1 136.375 21.575 Z M 155.425 21.575 L 168.425 21.575 A 0.5 0.5 0 0 1 168.925 22.075 L 168.925 35.075 A 0.5 0.5 0 0 1 168.425 35.575 L 155.425 35.575 A 0.5 0.5 0 0 1 154.925 35.075 L 154.925 22.075 A 0.5 0.5 0 0 1 155.425 21.575 Z M 174.475 21.575 L 187.475 21.575 A 0.5 0.5 0 0 1 187.975 22.075 L 187.975 35.075 A 0.5 0.5 0 0 1 187.475 35.575 L 174.475 35.575 A 0.5 0.5 0 0 1 173.975 35.075 L 173.975 22.075 A 0.5 0.5 0 0 1 174.475 21.575 Z M 193.525 21.575 L 206.525 21.575 A 0.5 0.5 0 0 1 207.025 22.075 L 207.025 35.075 A 0.5 0.5 0 0 1 206.525 35.575 L 193.525 35.575 A 0.5 0.5 0 0 1 193.025 35.075 L 193.025 22.075 A 0.5 0.5 0 0 1 193.525 21.575 Z M 212.575 21.575 L 225.575 21.575 A 0.5 0.5 0 0 1 226.075 22.075 L 226.075 35.075 A 0.5 0.5 0 0 1 225.575 35.575 L 212.575 35.575 A 0.5 0.5 0 0 1 212.075 35.075 L 212.075 22.075 A 0.5 0.5 0 0 1 212.575 21.575 Z M 231.625 21.575 L 244.625 21.575 A 0.5 0.5 0 0 1 245.125 22.075 L 245.125 35.075 A 0.5 0.5 0 0 1 244.625 35.575 L 231.625 35.575 A 0.5 0.5 0 0 1 231.125 35.075 L 231.125 22.075 A 0.5 0.5 0 0 1 231.625 21.575 Z M 250.675 21.575 L 263.675 21.575 A 0.5 0.5 0 0 1 264.175 22.075 L 264.175 35.075 A 0.5 0.5 0 0 1 263.675 35.575 L 250.675 35.575 A 0.5 0.5 0 0 1 250.175 35.075 L 250.175 22.075 A 0.5 0.5 0 0 1 250.675 21.575 Z M 22.075 64.438 L 35.075 64.438 A 0.5 0.5 0 0 1 35.575 64.938 L 35.575 77.938 A 0.5 0.5 0 0 1 35.075 78.438 L 22.075 78.438 A 0.5 0.5 0 0 1 21.575 77.938 L 21.575 64.938 A 0.5 0.5 0 0 1 22.075 64.438 Z M 12.55 45.388 L 25.55 45.388 A 0.5 0.5 0 0 1 26.05 45.888 L 26.05 58.888 A 0.5 0.5 0 0 1 25.55 59.388 L 12.55 59.388 A 0.5 0.5 0 0 1 12.05 58.888 L 12.05 45.888 A 0.5 0.5 0 0 1 12.55 45.388 Z M 31.6 45.388 L 44.6 45.388 A 0.5 0.5 0 0 1 45.1 45.888 L 45.1 58.888 A 0.5 0.5 0 0 1 44.6 59.388 L 31.6 59.388 A 0.5 0.5 0 0 1 31.1 58.888 L 31.1 45.888 A 0.5 0.5 0 0 1 31.6 45.388 Z M 69.7 45.388 L 82.7 45.388 A 0.5 0.5 0 0 1 83.2 45.888 L 83.2 58.888 A 0.5 0.5 0 0 1 82.7 59.388 L 69.7 59.388 A 0.5 0.5 0 0 1 69.2 58.888 L 69.2 45.888 A 0.5 0.5 0 0 1 69.7 45.388 Z M 88.75 45.388 L 101.75 45.388 A 0.5 0.5 0 0 1 102.25 45.888 L 102.25 58.888 A 0.5 0.5 0 0 1 101.75 59.388 L 88.75 59.388 A 0.5 0.5 0 0 1 88.25 58.888 L 88.25 45.888 A 0.5 0.5 0 0 1 88.75 45.388 Z M 107.8 45.388 L 120.8 45.388 A 0.5 0.5 0 0 1 121.3 45.888 L 121.3 58.888 A 0.5 0.5 0 0 1 120.8 59.388 L 107.8 59.388 A 0.5 0.5 0 0 1 107.3 58.888 L 107.3 45.888 A 0.5 0.5 0 0 1 107.8 45.388 Z M 145.9 45.388 L 158.9 45.388 A 0.5 0.5 0 0 1 159.4 45.888 L 159.4 58.888 A 0.5 0.5 0 0 1 158.9 59.388 L 145.9 59.388 A 0.5 0.5 0 0 1 145.4 58.888 L 145.4 45.888 A 0.5 0.5 0 0 1 145.9 45.388 Z M 164.95 45.388 L 177.95 45.388 A 0.5 0.5 0 0 1 178.45 45.888 L 178.45 58.888 A 0.5 0.5 0 0 1 177.95 59.388 L 164.95 59.388 A 0.5 0.5 0 0 1 164.45 58.888 L 164.45 45.888 A 0.5 0.5 0 0 1 164.95 45.388 Z M 203.05 45.388 L 216.05 45.388 A 0.5 0.5 0 0 1 216.55 45.888 L 216.55 58.888 A 0.5 0.5 0 0 1 216.05 59.388 L 203.05 59.388 A 0.5 0.5 0 0 1 202.55 58.888 L 202.55 45.888 A 0.5 0.5 0 0 1 203.05 45.388 Z M 222.1 45.388 L 235.1 45.388 A 0.5 0.5 0 0 1 235.6 45.888 L 235.6 58.888 A 0.5 0.5 0 0 1 235.1 59.388 L 222.1 59.388 A 0.5 0.5 0 0 1 221.6 58.888 L 221.6 45.888 A 0.5 0.5 0 0 1 222.1 45.388 Z M 241.15 45.388 L 254.15 45.388 A 0.5 0.5 0 0 1 254.65 45.888 L 254.65 58.888 A 0.5 0.5 0 0 1 254.15 59.388 L 241.15 59.388 A 0.5 0.5 0 0 1 240.65 58.888 L 240.65 45.888 A 0.5 0.5 0 0 1 241.15 45.388 Z M 41.125 64.438 L 54.125 64.438 A 0.5 0.5 0 0 1 54.625 64.938 L 54.625 77.938 A 0.5 0.5 0 0 1 54.125 78.438 L 41.125 78.438 A 0.5 0.5 0 0 1 40.625 77.938 L 40.625 64.938 A 0.5 0.5 0 0 1 41.125 64.438 Z M 60.175 64.438 L 73.175 64.438 A 0.5 0.5 0 0 1 73.675 64.938 L 73.675 77.938 A 0.5 0.5 0 0 1 73.175 78.438 L 60.175 78.438 A 0.5 0.5 0 0 1 59.675 77.938 L 59.675 64.938 A 0.5 0.5 0 0 1 60.175 64.438 Z M 79.225 64.438 L 92.225 64.438 A 0.5 0.5 0 0 1 92.725 64.938 L 92.725 77.938 A 0.5 0.5 0 0 1 92.225 78.438 L 79.225 78.438 A 0.5 0.5 0 0 1 78.725 77.938 L 78.725 64.938 A 0.5 0.5 0 0 1 79.225 64.438 Z M 98.275 64.438 L 111.275 64.438 A 0.5 0.5 0 0 1 111.775 64.938 L 111.775 77.938 A 0.5 0.5 0 0 1 111.275 78.438 L 98.275 78.438 A 0.5 0.5 0 0 1 97.775 77.938 L 97.775 64.938 A 0.5 0.5 0 0 1 98.275 64.438 Z M 136.375 64.438 L 149.375 64.438 A 0.5 0.5 0 0 1 149.875 64.938 L 149.875 77.938 A 0.5 0.5 0 0 1 149.375 78.438 L 136.375 78.438 A 0.5 0.5 0 0 1 135.875 77.938 L 135.875 64.938 A 0.5 0.5 0 0 1 136.375 64.438 Z M 155.425 64.438 L 168.425 64.438 A 0.5 0.5 0 0 1 168.925 64.938 L 168.925 77.938 A 0.5 0.5 0 0 1 168.425 78.438 L 155.425 78.438 A 0.5 0.5 0 0 1 154.925 77.938 L 154.925 64.938 A 0.5 0.5 0 0 1 155.425 64.438 Z M 174.475 64.438 L 187.475 64.438 A 0.5 0.5 0 0 1 187.975 64.938 L 187.975 77.938 A 0.5 0.5 0 0 1 187.475 78.438 L 174.475 78.438 A 0.5 0.5 0 0 1 173.975 77.938 L 173.975 64.938 A 0.5 0.5 0 0 1 174.475 64.438 Z M 193.525 64.438 L 206.525 64.438 A 0.5 0.5 0 0 1 207.025 64.938 L 207.025 77.938 A 0.5 0.5 0 0 1 206.525 78.438 L 193.525 78.438 A 0.5 0.5 0 0 1 193.025 77.938 L 193.025 64.938 A 0.5 0.5 0 0 1 193.525 64.438 Z M 212.575 64.438 L 225.575 64.438 A 0.5 0.5 0 0 1 226.075 64.938 L 226.075 77.938 A 0.5 0.5 0 0 1 225.575 78.438 L 212.575 78.438 A 0.5 0.5 0 0 1 212.075 77.938 L 212.075 64.938 A 0.5 0.5 0 0 1 212.575 64.438 Z M 231.625 64.438 L 244.625 64.438 A 0.5 0.5 0 0 1 245.125 64.938 L 245.125 77.938 A 0.5 0.5 0 0 1 244.625 78.438 L 231.625 78.438 A 0.5 0.5 0 0 1 231.125 77.938 L 231.125 64.938 A 0.5 0.5 0 0 1 231.625 64.438 Z M 250.675 64.438 L 263.675 64.438 A 0.5 0.5 0 0 1 264.175 64.938 L 264.175 77.938 A 0.5 0.5 0 0 1 263.675 78.438 L 250.675 78.438 A 0.5 0.5 0 0 1 250.175 77.938 L 250.175 64.938 A 0.5 0.5 0 0 1 250.675 64.438 Z M 3.025 2.525 L 16.025 2.525 A 0.5 0.5 0 0 1 16.525 3.025 L 16.525 16.025 A 0.5 0.5 0 0 1 16.025 16.525 L 3.025 16.525 A 0.5 0.5 0 0 1 2.525 16.025 L 2.525 3.025 A 0.5 0.5 0 0 1 3.025 2.525 Z M 145.9 2.525 L 158.9 2.525 A 0.5 0.5 0 0 1 159.4 3.025 L 159.4 16.025 A 0.5 0.5 0 0 1 158.9 16.525 L 145.9 16.525 A 0.5 0.5 0 0 1 145.4 16.025 L 145.4 3.025 A 0.5 0.5 0 0 1 145.9 2.525 Z M 164.95 2.525 L 177.95 2.525 A 0.5 0.5 0 0 1 178.45 3.025 L 178.45 16.025 A 0.5 0.5 0 0 1 177.95 16.525 L 164.95 16.525 A 0.5 0.5 0 0 1 164.45 16.025 L 164.45 3.025 A 0.5 0.5 0 0 1 164.95 2.525 Z M 203.05 2.525 L 216.05 2.525 A 0.5 0.5 0 0 1 216.55 3.025 L 216.55 16.025 A 0.5 0.5 0 0 1 216.05 16.525 L 203.05 16.525 A 0.5 0.5 0 0 1 202.55 16.025 L 202.55 3.025 A 0.5 0.5 0 0 1 203.05 2.525 Z M 222.1 2.525 L 235.1 2.525 A 0.5 0.5 0 0 1 235.6 3.025 L 235.6 16.025 A 0.5 0.5 0 0 1 235.1 16.525 L 222.1 16.525 A 0.5 0.5 0 0 1 221.6 16.025 L 221.6 3.025 A 0.5 0.5 0 0 1 222.1 2.525 Z M 241.15 2.525 L 254.15 2.525 A 0.5 0.5 0 0 1 254.65 3.025 L 254.65 16.025 A 0.5 0.5 0 0 1 254.15 16.525 L 241.15 16.525 A 0.5 0.5 0 0 1 240.65 16.025 L 240.65 3.025 A 0.5 0.5 0 0 1 241.15 2.525 Z M 3.025 64.438 L 16.025 64.438 A 0.5 0.5 0 0 1 16.525 64.938 L 16.525 77.938 A 0.5 0.5 0 0 1 16.025 78.438 L 3.025 78.438 A 0.5 0.5 0 0 1 2.525 77.938 L 2.525 64.938 A 0.5 0.5 0 0 1 3.025 64.438 Z M 117.325 64.438 L 130.325 64.438 A 0.5 0.5 0 0 1 130.825 64.938 L 130.825 77.938 A 0.5 0.5 0 0 1 130.325 78.438 L 117.325 78.438 A 0.5 0.5 0 0 1 116.825 77.938 L 116.825 64.938 A 0.5 0.5 0 0 1 117.325 64.438 Z" vector-effect="non-scaling-stroke"/></g></svg>