0
SECTION
2
HEADER
9
$INSUNITS
70
4
0
ENDSEC
0
SECTION
2
TABLES
0
TABLE
2
LTYPE
0
LTYPE
72
65
70
64
2
CONTINUOUS
3
______
73
0
40
0
0
ENDTAB
0
TABLE
2
LAYER
0
ENDTAB
0
ENDSEC
0
SECTION
2
ENTITIES
0
LINE
8
0
10
3.025
20
-2.525
11
16.025
21
-2.525
0
LINE
8
0
10
3.025
20
-16.525
11
16.025
21
-16.525
0
LINE
8
0
10
2.525
20
-3.025
11
2.525
21
-16.025
0
LINE
8
0
10
16.525
20
-3.025
11
16.525
21
-16.025
0
ARC
8
0
10
3.025
20
-3.025
40
0.5
50
90
51
180
0
ARC
8
0
10
16.025
20
-3.025
40
0.5
50
0
51
90
0
ARC
8
0
10
3.025
20
-16.025
40
0.5
50
180
51
270
0
ARC
8
0
10
16.025
20
-16.025
40
0.5
50
270
51
0
0
LINE
8
0
10
145.9
20
-2.525
11
158.9
21
-2.525
0
LINE
8
0
10
145.9
20
-16.525
11
158.9
21
-16.525
0
LINE
8
0
10
145.4
20
-3.025
11
145.4
21
-16.025
0
LINE
8
0
10
159.4
20
-3.025
11
159.4
21
-16.025
0
ARC
8
0
10
145.9
20
-3.025
40
0.5
50
90
51
180
0
ARC
8
0
10
158.9
20
-3.025
40
0.5
50
0
51
90
0
ARC
8
0
10
145.9
20
-16.025
40
0.5
50
180
51
270
0
ARC
8
0
10
158.9
20
-16.025
40
0.5
50
270
51
0
0
LINE
8
0
10
164.95
20
-2.525
11
177.95
21
-2.525
0
LINE
8
0
10
164.95
20
-16.525
11
177.95
21
-16.525
0
LINE
8
0
10
164.45
20
-3.025
11
164.45
21
-16.025
0
LINE
8
0
10
178.45
20
-3.025
11
178.45
21
-16.025
0
ARC
8
0
10
164.95
20
-3.025
40
0.5
50
90
51
180
0
ARC
8
0
10
177.95
20
-3.025
40
0.5
50
0
51
90
0
ARC
8
0
10
164.95
20
-16.025
40
0.5
50
180
51
270
0
ARC
8
0
10
177.95
20
-16.025
40
0.5
50
270
51
0
0
LINE
8
0
10
203.05
20
-2.525
11
216.05
21
-2.525
0
LINE
8
0
10
203.05
20
-16.525
11
216.05
21
-16.525
0
LINE
8
0
10
202.55
20
-3.025
11
202.55
21
-16.025
0
LINE
8
0
10
216.55
20
-3.025
11
216.55
21
-16.025
0
ARC
8
0
10
203.05
20
-3.025
40
0.5
50
90
51
180
0
ARC
8
0
10
216.05
20
-3.025
40
0.5
50
0
51
90
0
ARC
8
0
10
203.05
20
-16.025
40
0.5
50
180
51
270
0
ARC
8
0
10
216.05
20
-16.025
40
0.5
50
270
51
0
0
LINE
8
0
10
222.1
20
-2.525
11
235.1
21
-2.525
0
LINE
8
0
10
222.1
20
-16.525
11
235.1
21
-16.525
0
LINE
8
0
10
221.6
20
-3.025
11
221.6
21
-16.025
0
LINE
8
0
10
235.6
20
-3.025
11
235.6
21
-16.025
0
ARC
8
0
10
222.1
20
-3.025
40
0.5
50
90
51
180
0
ARC
8
0
10
235.1
20
-3.025
40
0.5
50
0
51
90
0
ARC
8
0
10
222.1
20
-16.025
40
0.5
50
180
51
270
0
ARC
8
0
10
235.1
20
-16.025
40
0.5
50
270
51
0
0
LINE
8
0
10
241.15
20
-2.525
11
254.15
21
-2.525
0
LINE
8
0
10
241.15
20
-16.525
11
254.15
21
-16.525
0
LINE
8
0
10
240.65
20
-3.025
11
240.65
21
-16.025
0
LINE
8
0
10
254.65
20
-3.025
11
254.65
21
-16.025
0
ARC
8
0
10
241.15
20
-3.025
40
0.5
50
90
51
180
0
ARC
8
0
10
254.15
20
-3.025
40
0.5
50
0
51
90
0
ARC
8
0
10
241.15
20
-16.025
40
0.5
50
180
51
270
0
ARC
8
0
10
254.15
20
-16.025
40
0.5
50
270
51
0
0
LINE
8
0
10
3.025
20
-21.575
11
16.025
21
-21.575
0
LINE
8
0
10
3.025
20
-35.575
11
16.025
21
-35.575
0
LINE
8
0
10
2.525
20
-22.075
11
2.525
21
-35.075
0
LINE
8
0
10
16.525
20
-22.075
11
16.525
21
-35.075
0
ARC
8
0
10
3.025
20
-22.075
40
0.5
50
90
51
180
0
ARC
8
0
10
16.025
20
-22.075
40
0.5
50
0
51
90
0
ARC
8
0
10
3.025
20
-35.075
40
0.5
50
180
51
270
0
ARC
8
0
10
16.025
20
-35.075
40
0.5
50
270
51
0
0
LINE
8
0
10
136.375
20
-21.575
11
149.375
21
-21.575
0
LINE
8
0
10
136.375
20
-35.575
11
149.375
21
-35.575
0
LINE
8
0
10
135.875
20
-22.075
11
135.875
21
-35.075
0
LINE
8
0
10
149.875
20
-22.075
11
149.875
21
-35.075
0
ARC
8
0
10
136.375
20
-22.075
40
0.5
50
90
51
180
0
ARC
8
0
10
149.375
20
-22.075
40
0.5
50
0
51
90
0
ARC
8
0
10
136.375
20
-35.075
40
0.5
50
180
51
270
0
ARC
8
0
10
149.375
20
-35.075
40
0.5
50
270
51
0
0
LINE
8
0
10
155.425
20
-21.575
11
168.425
21
-21.575
0
LINE
8
0
10
155.425
20
-35.575
11
168.425
21
-35.575
0
LINE
8
0
10
154.925
20
-22.075
11
154.925
21
-35.075
0
LINE
8
0
10
168.925
20
-22.075
11
168.925
21
-35.075
0
ARC
8
0
10
155.425
20
-22.075
40
0.5
50
90
51
180
0
ARC
8
0
10
168.425
20
-22.075
40
0.5
50
0
51
90
0
ARC
8
0
10
155.425
20
-35.075
40
0.5
50
180
51
270
0
ARC
8
0
10
168.425
20
-35.075
40
0.5
50
270
51
0
0
LINE
8
0
10
174.475
20
-21.575
11
187.475
21
-21.575
0
LINE
8
0
10
174.475
20
-35.575
11
187.475
21
-35.575
0
LINE
8
0
10
173.975
20
-22.075
11
173.975
21
-35.075
0
LINE
8
0
10
187.975
20
-22.075
11
187.975
21
-35.075
0
ARC
8
0
10
174.475
20
-22.075
40
0.5
50
90
51
180
0
ARC
8
0
10
187.475
20
-22.075
40
0.5
50
0
51
90
0
ARC
8
0
10
174.475
20
-35.075
40
0.5
50
180
51
270
0
ARC
8
0
10
187.475
20
-35.075
40
0.5
50
270
51
0
0
LINE
8
0
10
193.525
20
-21.575
11
206.525
21
-21.575
0
LINE
8
0
10
193.525
20
-35.575
11
206.525
21
-35.575
0
LINE
8
0
10
193.025
20
-22.075
11
193.025
21
-35.075
0
LINE
8
0
10
207.025
20
-22.075
11
207.025
21
-35.075
0
ARC
8
0
10
193.525
20
-22.075
40
0.5
50
90
51
180
0
ARC
8
0
10
206.525
20
-22.075
40
0.5
50
0
51
90
0
ARC
8
0
10
193.525
20
-35.075
40
0.5
50
180
51
270
0
ARC
8
0
10
206.525
20
-35.075
40
0.5
50
270
51
0
0
LINE
8
0
10
212.575
20
-21.575
11
225.575
21
-21.575
0
LINE
8
0
10
212.575
20
-35.575
11
225.575
21
-35.575
0
LINE
8
0
10
212.075
20
-22.075
11
212.075
21
-35.075
0
LINE
8
0
10
226.075
20
-22.075
11
226.075
21
-35.075
0
ARC
8
0
10
212.575
20
-22.075
40
0.5
50
90
51
180
0
ARC
8
0
10
225.575
20
-22.075
40
0.5
50
0
51
90
0
ARC
8
0
10
212.575
20
-35.075
40
0.5
50
180
51
270
0
ARC
8
0
10
225.575
20
-35.075
40
0.5
50
270
51
0
0
LINE
8
0
10
231.625
20
-21.575
11
244.625
21
-21.575
0
LINE
8
0
10
231.625
20
-35.575
11
244.625
21
-35.575
0
LINE
8
0
10
231.125
20
-22.075
11
231.125
21
-35.075
0
LINE
8
0
10
245.125
20
-22.075
11
245.125
21
-35.075
0
ARC
8
0
10
231.625
20
-22.075
40
0.5
50
90
51
180
0
ARC
8
0
10
244.625
20
-22.075
40
0.5
50
0
51
90
0
ARC
8
0
10
231.625
20
-35.075
40
0.5
50
180
51
270
0
ARC
8
0
10
244.625
20
-35.075
40
0.5
50
270
51
0
0
LINE
8
0
10
250.675
20
-21.575
11
263.675
21
-21.575
0
LINE
8
0
10
250.675
20
-35.575
11
263.675
21
-35.575
0
LINE
8
0
10
250.175
20
-22.075
11
250.175
21
-35.075
0
LINE
8
0
10
264.175
20
-22.075
11
264.175
21
-35.075
0
ARC
8
0
10
250.675
20
-22.075
40
0.5
50
90
51
180
0
ARC
8
0
10
263.675
20
-22.075
40
0.5
50
0
51
90
0
ARC
8
0
10
250.675
20
-35.075
40
0.5
50
180
51
270
0
ARC
8
0
10
263.675
20
-35.075
40
0.5
50
270
51
0
0
LINE
8
0
10
12.55
20
-45.3875
11
25.55
21
-45.3875
0
LINE
8
0
10
12.55
20
-59.3875
11
25.55
21
-59.3875
0
LINE
8
0
10
12.05
20
-45.8875
11
12.05
21
-58.8875
0
LINE
8
0
10
26.05
20
-45.8875
11
26.05
21
-58.8875
0
ARC
8
0
10
12.55
20
-45.8875
40
0.5
50
90
51
180
0
ARC
8
0
10
25.55
20
-45.8875
40
0.5
50
0
51
90
0
ARC
8
0
10
12.55
20
-58.8875
40
0.5
50
180
51
270
0
ARC
8
0
10
25.55
20
-58.8875
40
0.5
50
270
51
0
0
LINE
8
0
10
31.6
20
-45.3875
11
44.6
21
-45.3875
0
LINE
8
0
10
31.6
20
-59.3875
11
44.6
21
-59.3875
0
LINE
8
0
10
31.1
20
-45.8875
11
31.1
21
-58.8875
0
LINE
8
0
10
45.1
20
-45.8875
11
45.1
21
-58.8875
0
ARC
8
0
10
31.6
20
-45.8875
40
0.5
50
90
51
180
0
ARC
8
0
10
44.6
20
-45.8875
40
0.5
50
0
51
90
0
ARC
8
0
10
31.6
20
-58.8875
40
0.5
50
180
51
270
0
ARC
8
0
10
44.6
20
-58.8875
40
0.5
50
270
51
0
0
LINE
8
0
10
69.7
20
-45.3875
11
82.7
21
-45.3875
0
LINE
8
0
10
69.7
20
-59.3875
11
82.7
21
-59.3875
0
LINE
8
0
10
69.2
20
-45.8875
11
69.2
21
-58.8875
0
LINE
8
0
10
83.2
20
-45.8875
11
83.2
21
-58.8875
0
ARC
8
0
10
69.7
20
-45.8875
40
0.5
50
90
51
180
0
ARC
8
0
10
82.7
20
-45.8875
40
0.5
50
0
51
90
0
ARC
8
0
10
69.7
20
-58.8875
40
0.5
50
180
51
270
0
ARC
8
0
10
82.7
20
-58.8875
40
0.5
50
270
51
0
0
LINE
8
0
10
88.75
20
-45.3875
11
101.75
21
-45.3875
0
LINE
8
0
10
88.75
20
-59.3875
11
101.75
21
-59.3875
0
LINE
8
0
10
88.25
20
-45.8875
11
88.25
21
-58.8875
0
LINE
8
0
10
102.25
20
-45.8875
11
102.25
21
-58.8875
0
ARC
8
0
10
88.75
20
-45.8875
40
0.5
50
90
51
180
0
ARC
8
0
10
101.75
20
-45.8875
40
0.5
50
0
51
90
0
ARC
8
0
10
88.75
20
-58.8875
40
0.5
50
180
51
270
0
ARC
8
0
10
101.75
20
-58.8875
40
0.5
50
270
51
0
0
LINE
8
0
10
107.8
20
-45.3875
11
120.8
21
-45.3875
0
LINE
8
0
10
107.8
20
-59.3875
11
120.8
21
-59.3875
0
LINE
8
0
10
107.3
20
-45.8875
11
107.3
21
-58.8875
0
LINE
8
0
10
121.3
20
-45.8875
11
121.3
21
-58.8875
0
ARC
8
0
10
107.8
20
-45.8875
40
0.5
50
90
51
180
0
ARC
8
0
10
120.8
20
-45.8875
40
0.5
50
0
51
90
0
ARC
8
0
10
107.8
20
-58.8875
40
0.5
50
180
51
270
0
ARC
8
0
10
120.8
20
-58.8875
40
0.5
50
270
51
0
0
LINE
8
0
10
145.9
20
-45.3875
11
158.9
21
-45.3875
0
LINE
8
0
10
145.9
20
-59.3875
11
158.9
21
-59.3875
0
LINE
8
0
10
145.4
20
-45.8875
11
145.4
21
-58.8875
0
LINE
8
0
10
159.4
20
-45.8875
11
159.4
21
-58.8875
0
ARC
8
0
10
145.9
20
-45.8875
40
0.5
50
90
51
180
0
ARC
8
0
10
158.9
20
-45.8875
40
0.5
50
0
51
90
0
ARC
8
0
10
145.9
20
-58.8875
40
0.5
50
180
51
270
0
ARC
8
0
10
158.9
20
-58.8875
40
0.5
50
270
51
0
0
LINE
8
0
10
164.95
20
-45.3875
11
177.95
21
-45.3875
0
LINE
8
0
10
164.95
20
-59.3875
11
177.95
21
-59.3875
0
LINE
8
0
10
164.45
20
-45.8875
11
164.45
21
-58.8875
0
LINE
8
0
10
178.45
20
-45.8875
11
178.45
21
-58.8875
0
ARC
8
0
10
164.95
20
-45.8875
40
0.5
50
90
51
180
0
ARC
8
0
10
177.95
20
-45.8875
40
0.5
50
0
51
90
0
ARC
8
0
10
164.95
20
-58.8875
40
0.5
50
180
51
270
0
ARC
8
0
10
177.95
20
-58.8875
40
0.5
50
270
51
0
0
LINE
8
0
10
203.05
20
-45.3875
11
216.05
21
-45.3875
0
LINE
8
0
10
203.05
20
-59.3875
11
216.05
21
-59.3875
0
LINE
8
0
10
202.55
20
-45.8875
11
202.55
21
-58.8875
0
LINE
8
0
10
216.55
20
-45.8875
11
216.55
21
-58.8875
0
ARC
8
0
10
203.05
20
-45.8875
40
0.5
50
90
51
180
0
ARC
8
0
10
216.05
20
-45.8875
40
0.5
50
0
51
90
0
ARC
8
0
10
203.05
20
-58.8875
40
0.5
50
180
51
270
0
ARC
8
0
10
216.05
20
-58.8875
40
0.5
50
270
51
0
0
LINE
8
0
10
222.1
20
-45.3875
11
235.1
21
-45.3875
0
LINE
8
0
10
222.1
20
-59.3875
11
235.1
21
-59.3875
0
LINE
8
0
10
221.6
20
-45.8875
11
221.6
21
-58.8875
0
LINE
8
0
10
235.6
20
-45.8875
11
235.6
21
-58.8875
0
ARC
8
0
10
222.1
20
-45.8875
40
0.5
50
90
51
180
0
ARC
8
0
10
235.1
20
-45.8875
40
0.5
50
0
51
90
0
ARC
8
0
10
222.1
20
-58.8875
40
0.5
50
180
51
270
0
ARC
8
0
10
235.1
20
-58.8875
40
0.5
50
270
51
0
0
LINE
8
0
10
241.15
20
-45.3875
11
254.15
21
-45.3875
0
LINE
8
0
10
241.15
20
-59.3875
11
254.15
21
-59.3875
0
LINE
8
0
10
240.65
20
-45.8875
11
240.65
21
-58.8875
0
LINE
8
0
10
254.65
20
-45.8875
11
254.65
21
-58.8875
0
ARC
8
0
10
241.15
20
-45.8875
40
0.5
50
90
51
180
0
ARC
8
0
10
254.15
20
-45.8875
40
0.5
50
0
51
90
0
ARC
8
0
10
241.15
20
-58.8875
40
0.5
50
180
51
270
0
ARC
8
0
10
254.15
20
-58.8875
40
0.5
50
270
51
0
0
LINE
8
0
10
3.025
20
-64.4375
11
16.025
21
-64.4375
0
LINE
8
0
10
3.025
20
-78.4375
11
16.025
21
-78.4375
0
LINE
8
0
10
2.525
20
-64.9375
11
2.525
21
-77.9375
0
LINE
8
0
10
16.525
20
-64.9375
11
16.525
21
-77.9375
0
ARC
8
0
10
3.025
20
-64.9375
40
0.5
50
90
51
180
0
ARC
8
0
10
16.025
20
-64.9375
40
0.5
50
0
51
90
0
ARC
8
0
10
3.025
20
-77.9375
40
0.5
50
180
51
270
0
ARC
8
0
10
16.025
20
-77.9375
40
0.5
50
270
51
0
0
LINE
8
0
10
22.075
20
-64.4375
11
35.075
21
-64.4375
0
LINE
8
0
10
22.075
20
-78.4375
11
35.075
21
-78.4375
0
LINE
8
0
10
21.575
20
-64.9375
11
21.575
21
-77.9375
0
LINE
8
0
10
35.575
20
-64.9375
11
35.575
21
-77.9375
0
ARC
8
0
10
22.075
20
-64.9375
40
0.5
50
90
51
180
0
ARC
8
0
10
35.075
20
-64.9375
40
0.5
50
0
51
90
0
ARC
8
0
10
22.075
20
-77.9375
40
0.5
50
180
51
270
0
ARC
8
0
10
35.075
20
-77.9375
40
0.5
50
270
51
0
0
LINE
8
0
10
41.125
20
-64.4375
11
54.125
21
-64.4375
0
LINE
8
0
10
41.125
20
-78.4375
11
54.125
21
-78.4375
0
LINE
8
0
10
40.625
20
-64.9375
11
40.625
21
-77.9375
0
LINE
8
0
10
54.625
20
-64.9375
11
54.625
21
-77.9375
0
ARC
8
0
10
41.125
20
-64.9375
40
0.5
50
90
51
180
0
ARC
8
0
10
54.125
20
-64.9375
40
0.5
50
0
51
90
0
ARC
8
0
10
41.125
20
-77.9375
40
0.5
50
180
51
270
0
ARC
8
0
10
54.125
20
-77.9375
40
0.5
50
270
51
0
0
LINE
8
0
10
60.175
20
-64.4375
11
73.175
21
-64.4375
0
LINE
8
0
10
60.175
20
-78.4375
11
73.175
21
-78.4375
0
LINE
8
0
10
59.675
20
-64.9375
11
59.675
21
-77.9375
0
LINE
8
0
10
73.675
20
-64.9375
11
73.675
21
-77.9375
0
ARC
8
0
10
60.175
20
-64.9375
40
0.5
50
90
51
180
0
ARC
8
0
10
73.175
20
-64.9375
40
0.5
50
0
51
90
0
ARC
8
0
10
60.175
20
-77.9375
40
0.5
50
180
51
270
0
ARC
8
0
10
73.175
20
-77.9375
40
0.5
50
270
51
0
0
LINE
8
0
10
79.225
20
-64.4375
11
92.225
21
-64.4375
0
LINE
8
0
10
79.225
20
-78.4375
11
92.225
21
-78.4375
0
LINE
8
0
10
78.725
20
-64.9375
11
78.725
21
-77.9375
0
LINE
8
0
10
92.725
20
-64.9375
11
92.725
21
-77.9375
0
ARC
8
0
10
79.225
20
-64.9375
40
0.5
50
90
51
180
0
ARC
8
0
10
92.225
20
-64.9375
40
0.5
50
0
51
90
0
ARC
8
0
10
79.225
20
-77.9375
40
0.5
50
180
51
270
0
ARC
8
0
10
92.225
20
-77.9375
40
0.5
50
270
51
0
0
LINE
8
0
10
98.275
20
-64.4375
11
111.275
21
-64.4375
0
LINE
8
0
10
98.275
20
-78.4375
11
111.275
21
-78.4375
0
LINE
8
0
10
97.775
20
-64.9375
11
97.775
21
-77.9375
0
LINE
8
0
10
111.775
20
-64.9375
11
111.775
21
-77.9375
0
ARC
8
0
10
98.275
20
-64.9375
40
0.5
50
90
51
180
0
ARC
8
0
10
111.275
20
-64.9375
40
0.5
50
0
51
90
0
ARC
8
0
10
98.275
20
-77.9375
40
0.5
50
180
51
270
0
ARC
8
0
10
111.275
20
-77.9375
40
0.5
50
270
51
0
0
LINE
8
0
10
117.325
20
-64.4375
11
130.325
21
-64.4375
0
LINE
8
0
10
117.325
20
-78.4375
11
130.325
21
-78.4375
0
LINE
8
0
10
116.825
20
-64.9375
11
116.825
21
-77.9375
0
LINE
8
0
10
130.825
20
-64.9375
11
130.825
21
-77.9375
0
ARC
8
0
10
117.325
20
-64.9375
40
0.5
50
90
51
180
0
ARC
8
0
10
130.325
20
-64.9375
40
0.5
50
0
51
90
0
ARC
8
0
10
117.325
20
-77.9375
40
0.5
50
180
51
270
0
ARC
8
0
10
130.325
20
-77.9375
40
0.5
50
270
51
0
0
LINE
8
0
10
136.375
20
-64.4375
11
149.375
21
-64.4375
0
LINE
8
0
10
136.375
20
-78.4375
11
149.375
21
-78.4375
0
LINE
8
0
10
135.875
20
-64.9375
11
135.875
21
-77.9375
0
LINE
8
0
10
149.875
20
-64.9375
11
149.875
21
-77.9375
0
ARC
8
0
10
136.375
20
-64.9375
40
0.5
50
90
51
180
0
ARC
8
0
10
149.375
20
-64.9375
40
0.5
50
0
51
90
0
ARC
8
0
10
136.375
20
-77.9375
40
0.5
50
180
51
270
0
ARC
8
0
10
149.375
20
-77.9375
40
0.5
50
270
51
0
0
LINE
8
0
10
155.425
20
-64.4375
11
168.425
21
-64.4375
0
LINE
8
0
10
155.425
20
-78.4375
11
168.425
21
-78.4375
0
LINE
8
0
10
154.925
20
-64.9375
11
154.925
21
-77.9375
0
LINE
8
0
10
168.925
20
-64.9375
11
168.925
21
-77.9375
0
ARC
8
0
10
155.425
20
-64.9375
40
0.5
50
90
51
180
0
ARC
8
0
10
168.425
20
-64.9375
40
0.5
50
0
51
90
0
ARC
8
0
10
155.425
20
-77.9375
40
0.5
50
180
51
270
0
ARC
8
0
10
168.425
20
-77.9375
40
0.5
50
270
51
0
0
LINE
8
0
10
174.475
20
-64.4375
11
187.475
21
-64.4375
0
LINE
8
0
10
174.475
20
-78.4375
11
187.475
21
-78.4375
0
LINE
8
0
10
173.975
20
-64.9375
11
173.975
21
-77.9375
0
LINE
8
0
10
187.975
20
-64.9375
11
187.975
21
-77.9375
0
ARC
8
0
10
174.475
20
-64.9375
40
0.5
50
90
51
180
0
ARC
8
0
10
187.475
20
-64.9375
40
0.5
50
0
51
90
0
ARC
8
0
10
174.475
20
-77.9375
40
0.5
50
180
51
270
0
ARC
8
0
10
187.475
20
-77.9375
40
0.5
50
270
51
0
0
LINE
8
0
10
193.525
20
-64.4375
11
206.525
21
-64.4375
0
LINE
8
0
10
193.525
20
-78.4375
11
206.525
21
-78.4375
0
LINE
8
0
10
193.025
20
-64.9375
11
193.025
21
-77.9375
0
LINE
8
0
10
207.025
20
-64.9375
11
207.025
21
-77.9375
0
ARC
8
0
10
193.525
20
-64.9375
40
0.5
50
90
51
180
0
ARC
8
0
10
206.525
20
-64.9375
40
0.5
50
0
51
90
0
ARC
8
0
10
193.525
20
-77.9375
40
0.5
50
180
51
270
0
ARC
8
0
10
206.525
20
-77.9375
40
0.5
50
270
51
0
0
LINE
8
0
10
212.575
20
-64.4375
11
225.575
21
-64.4375
0
LINE
8
0
10
212.575
20
-78.4375
11
225.575
21
-78.4375
0
LINE
8
0
10
212.075
20
-64.9375
11
212.075
21
-77.9375
0
LINE
8
0
10
226.075
20
-64.9375
11
226.075
21
-77.9375
0
ARC
8
0
10
212.575
20
-64.9375
40
0.5
50
90
51
180
0
ARC
8
0
10
225.575
20
-64.9375
40
0.5
50
0
51
90
0
ARC
8
0
10
212.575
20
-77.9375
40
0.5
50
180
51
270
0
ARC
8
0
10
225.575
20
-77.9375
40
0.5
50
270
51
0
0
LINE
8
0
10
231.625
20
-64.4375
11
244.625
21
-64.4375
0
LINE
8
0
10
231.625
20
-78.4375
11
244.625
21
-78.4375
0
LINE
8
0
10
231.125
20
-64.9375
11
231.125
21
-77.9375
0
LINE
8
0
10
245.125
20
-64.9375
11
245.125
21
-77.9375
0
ARC
8
0
10
231.625
20
-64.9375
40
0.5
50
90
51
180
0
ARC
8
0
10
244.625
20
-64.9375
40
0.5
50
0
51
90
0
ARC
8
0
10
231.625
20
-77.9375
40
0.5
50
180
51
270
0
ARC
8
0
10
244.625
20
-77.9375
40
0.5
50
270
51
0
0
LINE
8
0
10
250.675
20
-64.4375
11
263.675
21
-64.4375
0
LINE
8
0
10
250.675
20
-78.4375
11
263.675
21
-78.4375
0
LINE
8
0
10
250.175
20
-64.9375
11
250.175
21
-77.9375
0
LINE
8
0
10
264.175
20
-64.9375
11
264.175
21
-77.9375
0
ARC
8
0
10
250.675
20
-64.9375
40
0.5
50
90
51
180
0
ARC
8
0
10
263.675
20
-64.9375
40
0.5
50
0
51
90
0
ARC
8
0
10
250.675
20
-77.9375
40
0.5
50
180
51
270
0
ARC
8
0
10
263.675
20
-77.9375
40
0.5
50
270
51
0
0
LINE
8
0
10
0
20
-80.9625
11
266.7
21
-80.9625
0
LINE
8
0
10
0
20
0
11
266.7
21
0
0
LINE
8
0
10
0
20
-80.9625
11
0
21
0
0
LINE
8
0
10
266.7
20
-80.9625
11
266.7
21
0
0
ENDSEC
0
EOF